<svg width="20" height="20" viewBox="0 0 20 20" fill="none" xmlns="http://www.w3.org/2000/svg">
<g clip-path="url(#clip0_2001_97)">
<g filter="url(#filter0_d_2001_97)">
<mask id="mask0_2001_97" style="mask-type:alpha" maskUnits="userSpaceOnUse" x="2" y="4" width="16" height="12">
<path d="M2.77258 6.5308C2.77258 5.72125 2.77258 5.31647 2.93013 5.00727C3.06872 4.73528 3.28985 4.51415 3.56183 4.37557C3.87104 4.21802 4.27581 4.21802 5.08536 4.21802H14.9147C15.7242 4.21802 16.129 4.21802 16.4382 4.37557C16.7102 4.51415 16.9313 4.73528 17.0699 5.00727C17.2275 5.31647 17.2275 5.72125 17.2275 6.5308V13.4691C17.2275 14.2787 17.2275 14.6835 17.0699 14.9927C16.9313 15.2647 16.7102 15.4858 16.4382 15.6244C16.129 15.7819 15.7242 15.7819 14.9147 15.7819H5.08536C4.27581 15.7819 3.87104 15.7819 3.56183 15.6244C3.28985 15.4858 3.06872 15.2647 2.93013 14.9927C2.77258 14.6835 2.77258 14.2787 2.77258 13.4691V6.5308Z" fill="#2F7AFF"/>
</mask>
<g mask="url(#mask0_2001_97)">
<path d="M2.77258 6.5308C2.77258 5.72125 2.77258 5.31647 2.93013 5.00727C3.06872 4.73528 3.28985 4.51415 3.56183 4.37557C3.87104 4.21802 4.27581 4.21802 5.08536 4.21802H14.9147C15.7242 4.21802 16.129 4.21802 16.4382 4.37557C16.7102 4.51415 16.9313 4.73528 17.0699 5.00727C17.2275 5.31647 17.2275 5.72125 17.2275 6.5308V13.4691C17.2275 14.2787 17.2275 14.6835 17.0699 14.9927C16.9313 15.2647 16.7102 15.4858 16.4382 15.6244C16.129 15.7819 15.7242 15.7819 14.9147 15.7819H5.08536C4.27581 15.7819 3.87104 15.7819 3.56183 15.6244C3.28985 15.4858 3.06872 15.2647 2.93013 14.9927C2.77258 14.6835 2.77258 14.2787 2.77258 13.4691V6.5308Z" fill="url(#paint0_linear_2001_97)"/>
<path d="M10 7.83178L-0.118408 17.9502H20.1184L10 7.83178Z" fill="url(#paint1_radial_2001_97)"/>
<g filter="url(#filter1_f_2001_97)">
<path d="M9.01373 11.3534L1.8398 4.65774C0.880689 3.76257 1.51413 2.15552 2.82608 2.15552H17.1739C18.4859 2.15552 19.1193 3.76256 18.1602 4.65773L10.9863 11.3534C10.4309 11.8717 9.56909 11.8717 9.01373 11.3534Z" fill="url(#paint2_linear_2001_97)" fill-opacity="0.69"/>
</g>
<path d="M9.01373 10.5248L1.8398 3.82912C0.880689 2.93395 1.51413 1.3269 2.82608 1.3269H17.1739C18.4859 1.3269 19.1193 2.93395 18.1602 3.82912L10.9863 10.5248C10.4309 11.0431 9.56909 11.0431 9.01373 10.5248Z" fill="url(#paint3_radial_2001_97)"/>
</g>
</g>
</g>
<defs>
<filter id="filter0_d_2001_97" x="-7.00328" y="-5.55784" width="34.0066" height="31.1157" filterUnits="userSpaceOnUse" color-interpolation-filters="sRGB">
<feFlood flood-opacity="0" result="BackgroundImageFix"/>
<feColorMatrix in="SourceAlpha" type="matrix" values="0 0 0 0 0 0 0 0 0 0 0 0 0 0 0 0 0 0 127 0" result="hardAlpha"/>
<feOffset/>
<feGaussianBlur stdDeviation="4.88793"/>
<feColorMatrix type="matrix" values="0 0 0 0 0.379167 0 0 0 0 0.66475 0 0 0 0 1 0 0 0 0.25 0"/>
<feBlend mode="normal" in2="BackgroundImageFix" result="effect1_dropShadow_2001_97"/>
<feBlend mode="normal" in="SourceGraphic" in2="effect1_dropShadow_2001_97" result="shape"/>
</filter>
<filter id="filter1_f_2001_97" x="-11.6568" y="-10.879" width="43.3136" height="35.6556" filterUnits="userSpaceOnUse" color-interpolation-filters="sRGB">
<feFlood flood-opacity="0" result="BackgroundImageFix"/>
<feBlend mode="normal" in="SourceGraphic" in2="BackgroundImageFix" result="shape"/>
<feGaussianBlur stdDeviation="6.51724" result="effect1_foregroundBlur_2001_97"/>
</filter>
<linearGradient id="paint0_linear_2001_97" x1="3.75006" y1="6.24997" x2="18.7501" y2="13.75" gradientUnits="userSpaceOnUse">
<stop stop-color="#2FB4FF"/>
<stop offset="1" stop-color="#2F69FF"/>
</linearGradient>
<radialGradient id="paint1_radial_2001_97" cx="0" cy="0" r="1" gradientUnits="userSpaceOnUse" gradientTransform="translate(4.16667 13.75) rotate(15.9454) scale(12.1335 12.0236)">
<stop stop-color="#00D1FF" stop-opacity="0.46"/>
<stop offset="1" stop-color="#00B2FF" stop-opacity="0.71"/>
</radialGradient>
<linearGradient id="paint2_linear_2001_97" x1="5.41668" y1="7.9358" x2="15" y2="7.9358" gradientUnits="userSpaceOnUse">
<stop stop-color="#0D6EFF"/>
<stop offset="1" stop-color="#0D5FFF"/>
</linearGradient>
<radialGradient id="paint3_radial_2001_97" cx="0" cy="0" r="1" gradientUnits="userSpaceOnUse" gradientTransform="translate(2.91669 3.74985) rotate(46.3322) scale(12.6724 11.4005)">
<stop stop-color="#5AFFF5"/>
<stop offset="1" stop-color="#00B2FF"/>
</radialGradient>
<clipPath id="clip0_2001_97">
<rect width="20" height="20" fill="white"/>
</clipPath>
</defs>
</svg>
