<svg width="234" height="42" viewBox="0 0 234 42" fill="none" xmlns="http://www.w3.org/2000/svg">
<path d="M21 0L25.7148 14.5106H40.9722L28.6287 23.4787L33.3435 37.9894L21 29.0213L8.65651 37.9894L13.3713 23.4787L1.02781 14.5106H16.2852L21 0Z" fill="#DCC814"/>
<path d="M69 0L73.7148 14.5106H88.9722L76.6287 23.4787L81.3435 37.9894L69 29.0213L56.6565 37.9894L61.3713 23.4787L49.0278 14.5106H64.2852L69 0Z" fill="#DCC814"/>
<path d="M117 0L121.715 14.5106H136.972L124.629 23.4787L129.343 37.9894L117 29.0213L104.657 37.9894L109.371 23.4787L97.0278 14.5106H112.285L117 0Z" fill="#DCC814"/>
<path d="M165 0L169.715 14.5106H184.972L172.629 23.4787L177.343 37.9894L165 29.0213L152.657 37.9894L157.371 23.4787L145.028 14.5106H160.285L165 0Z" fill="#DCC814"/>
<path d="M213 0L217.715 14.5106H232.972L220.629 23.4787L225.343 37.9894L213 29.0213L200.657 37.9894L205.371 23.4787L193.028 14.5106H208.285L213 0Z" fill="#DCC814"/>
</svg>
