<svg width="51" height="51" viewBox="0 0 51 51" fill="none" xmlns="http://www.w3.org/2000/svg">
<path d="M21.9398 2.95103C23.4262 0.0489851 27.5738 0.0489787 29.0602 2.95102L34.9035 14.3597C35.286 15.1065 35.8935 15.714 36.6403 16.0965L48.049 21.9398C50.951 23.4262 50.951 27.5738 48.049 29.0602L36.6403 34.9035C35.8935 35.286 35.286 35.8935 34.9035 36.6403L29.0602 48.049C27.5738 50.951 23.4262 50.951 21.9398 48.049L16.0965 36.6403C15.714 35.8935 15.1065 35.286 14.3597 34.9035L2.95103 29.0602C0.0489851 27.5738 0.0489787 23.4262 2.95102 21.9398L14.3597 16.0965C15.1065 15.714 15.714 15.1065 16.0965 14.3597L21.9398 2.95103Z" fill="#1DAC4F"/>
</svg>
