<svg width="34" height="34" viewBox="0 0 34 34" fill="none" xmlns="http://www.w3.org/2000/svg">
<path d="M27.3252 0.777031C30.7314 -0.856493 34.2951 2.70716 32.6616 6.11339L28.4048 14.9896C27.8804 16.0831 27.8804 17.3555 28.4048 18.449L32.6616 27.3252C34.2951 30.7314 30.7314 34.2951 27.3252 32.6616L18.449 28.4048C17.3555 27.8804 16.0831 27.8804 14.9896 28.4048L6.11339 32.6616C2.70716 34.2951 -0.856495 30.7314 0.77703 27.3252L5.03381 18.449C5.55821 17.3555 5.55821 16.0831 5.03381 14.9896L0.777032 6.11339C-0.856493 2.70716 2.70716 -0.856495 6.11339 0.77703L14.9896 5.03381C16.0831 5.55821 17.3555 5.55821 18.449 5.03381L27.3252 0.777031Z" fill="#C55BC1"/>
</svg>
